<svg width="129" height="126" viewBox="0 0 129 126" xmlns="http://www.w3.org/2000/svg"><title>Slice 1</title><path d="M64.494 0C28.88 0 0 28.92 0 64.596c0 28.54 18.48 52.748 44.11 61.29 3.227.594 4.403-1.4 4.403-3.113 0-1.53-.055-5.595-.087-10.984-17.94 3.9-21.726-8.662-21.726-8.662-2.934-7.463-7.163-9.45-7.163-9.45-5.857-4.004.443-3.925.443-3.925 6.474.456 9.88 6.658 9.88 6.658 5.753 9.87 15.097 7.02 18.772 5.366.586-4.172 2.253-7.02 4.094-8.633-14.322-1.63-29.38-7.173-29.38-31.925 0-7.05 2.514-12.82 6.64-17.333-.665-1.634-2.88-8.204.634-17.095 0 0 5.412-1.737 17.735 6.622 5.143-1.435 10.663-2.15 16.147-2.177 5.48.028 10.996.742 16.147 2.177 12.314-8.36 17.718-6.622 17.718-6.622 3.52 8.89 1.307 15.46.646 17.095 4.134 4.513 6.628 10.282 6.628 17.333 0 24.815-15.082 30.276-29.447 31.874 2.312 1.994 4.375 5.936 4.375 11.963 0 8.633-.08 15.6-.08 17.718 0 1.73 1.165 3.74 4.436 3.11C110.536 117.32 129 93.126 129 64.595 129 28.92 100.12 0 64.494 0" fill="#FFF" fill-rule="evenodd"/></svg>