<svg xmlns="http://www.w3.org/2000/svg" width="23.303" height="19.369" viewBox="0 0 23.303 19.369"><path d="M17.558 6.432C17.558 2.882 13.63 0 8.782 0 3.928 0 0 2.882 0 6.432c0 2.186 1.497 4.107 3.77 5.27l-2.18 4.145 4.73-3.27c.785.17 1.603.29 2.462.29 4.85 0 8.776-2.88 8.776-6.435zM6.024 7.13H4.17V5.275h1.854V7.13zm5.626-1.855h1.854V7.13H11.65V5.275zm-3.74 0h1.853V7.13H7.91V5.275z"/><path d="M23.303 10.48c0-2.334-1.797-4.358-4.432-5.376.13.48.2.976.2 1.488 0 4.208-4.65 7.622-10.395 7.622-.07 0-.137-.015-.207-.015 1.515 1.43 3.88 2.354 6.543 2.354.813 0 1.584-.113 2.326-.27l4.468 3.084-2.06-3.91c2.147-1.102 3.56-2.916 3.56-4.98z"/></svg>