<svg xmlns="http://www.w3.org/2000/svg" width="512" height="512" viewBox="0 0 512 512"><path fill="#010101" d="M459.654 233.373l-90.53 90.5c-49.97 50-131.032 50-181 0-7.876-7.844-14.032-16.688-19.44-25.813l42.064-42.063c2-2.016 4.47-3.172 6.828-4.53 2.906 9.937 7.984 19.343 15.797 27.155 24.953 24.97 65.563 24.938 90.5 0l90.5-90.5c24.97-24.97 24.97-65.563 0-90.516-24.938-24.953-65.53-24.953-90.5 0l-32.188 32.22c-26.11-10.173-54.25-12.907-81.64-8.892l68.577-68.578c50-49.984 131.03-49.984 181.03 0 49.97 49.986 49.97 131.033.002 181.017zM220.326 382.186l-32.203 32.22c-24.953 24.937-65.563 24.937-90.516 0-24.953-24.97-24.953-65.564 0-90.532l90.516-90.5c24.97-24.97 65.547-24.97 90.5 0 7.797 7.797 12.875 17.203 15.813 27.125 2.375-1.376 4.813-2.5 6.813-4.5l42.062-42.048c-5.375-9.156-11.563-17.97-19.438-25.828-49.97-49.984-131.03-49.984-181.016 0l-90.5 90.5c-49.984 50-49.984 131.03 0 181.03 49.984 49.97 131.03 49.97 181.016 0l68.594-68.593c-27.407 4.032-55.548 1.282-81.642-8.874z"/></svg>