<svg width="61" height="33" viewBox="0 0 61 33" xmlns="http://www.w3.org/2000/svg"><title>Slice 1</title><g fill="none" fill-rule="evenodd"><path d="M16.15.815l5.758 19.58 5.76-19.58H43.28V2.76L37.402 12.89c2.065.663 3.627 1.868 4.686 3.615 1.06 1.747 1.59 3.8 1.59 6.155 0 2.913-.775 5.362-2.324 7.348-1.55 1.986-3.555 2.978-6.017 2.978-1.854 0-3.47-.59-4.845-1.767-1.377-1.178-2.396-2.773-3.058-4.786l3.256-1.35c.477 1.22 1.106 2.18 1.887 2.88.78.702 1.7 1.052 2.76 1.052 1.112 0 2.052-.622 2.82-1.866.768-1.245 1.152-2.74 1.152-4.488 0-1.933-.412-3.43-1.232-4.488-.954-1.244-2.45-1.866-4.49-1.866h-1.587v-1.906l5.562-9.612H30.85l-.382.65-8.163 27.548h-.397L15.95 13.048 9.992 32.985h-.397L.065.815h4.17l5.758 19.58L13.886 7.21 11.98.815h4.17z" fill="#FFF"/><g fill="#FFF"><path d="M59.84.634l.675 4.107-2.39 4.576s-.92-1.94-2.444-3.015c-1.284-.904-2.12-1.1-3.43-.83-1.68.346-3.587 2.356-4.42 4.834-.994 2.965-1.004 4.4-1.04 5.718-.055 2.113.278 3.362.278 3.362s-1.45-2.686-1.438-6.62c.01-2.808.45-5.354 1.75-7.867 1.143-2.21 2.842-3.535 4.35-3.69 1.56-.162 2.79.59 3.743 1.403 1 .854 2.01 2.72 2.01 2.72L59.84.634zM60.134 23.872s-1.057 1.89-1.715 2.617c-.66.727-1.838 2.01-3.293 2.65-1.456.64-2.218.762-3.656.624-1.436-.138-2.772-.97-3.24-1.317-.468-.347-1.664-1.37-2.34-2.322-.675-.954-1.732-2.86-1.732-2.86s.59 1.912.958 2.722c.212.466.864 1.894 1.79 3.136.862 1.16 2.54 3.154 5.086 3.604 2.547.45 4.297-.693 4.73-.97.433-.278 1.346-1.042 1.924-1.66.603-.645 1.174-1.468 1.49-1.962.23-.36.607-1.092.607-1.092l-.61-3.17z"/></g></g></svg>